<svg width="67" height="9" viewBox="0 0 67 9" fill="none" xmlns="http://www.w3.org/2000/svg">
<path d="M0.54 8V0.271999H2.796V3.152H5.46V0.271999H7.716V8H5.46V5.12H2.796V8H0.54ZM12.4017 8.12C11.6817 8.12 11.0457 8.004 10.4937 7.772C9.94972 7.532 9.52172 7.184 9.20972 6.728C8.89772 6.264 8.74172 5.696 8.74172 5.024V0.271999H10.9977V4.784C10.9977 5.728 11.4657 6.2 12.4017 6.2C12.8497 6.2 13.1937 6.084 13.4337 5.852C13.6737 5.62 13.7937 5.264 13.7937 4.784V0.271999H16.0497V5.024C16.0497 5.696 15.8937 6.264 15.5817 6.728C15.2777 7.184 14.8497 7.532 14.2977 7.772C13.7537 8.004 13.1217 8.12 12.4017 8.12ZM17.0752 8V0.271999H19.2712L21.1912 4.196L23.0992 0.271999H25.2832V8H23.0272V4.136L21.7912 6.68H20.5792L19.3312 4.136V8H17.0752ZM26.1281 8L29.0921 0.271999H31.4801L34.4441 8H32.0921L31.4441 6.356H29.1161L28.4801 8H26.1281ZM29.4161 4.736H31.1441L30.2801 2.468L29.4161 4.736ZM35.2861 8V0.271999H37.2061L40.1221 4.364V0.271999H42.3781V8H40.4461L37.5421 3.92V8H35.2861ZM43.2141 8V6.38H44.9901V8H43.2141ZM45.833 8V0.271999H51.689V2H48.089V3.26H51.245V5.012H48.089V6.272H51.689V8H45.833ZM51.8625 8L54.7185 4.088L51.9705 0.271999H54.6585L56.0745 2.3L57.5025 0.271999H60.1905L57.4425 4.088L60.2985 8H57.5745L56.0745 5.9L54.5865 8H51.8625ZM60.9033 8V0.271999H66.7593V2H63.1593V3.26H66.3153V5.012H63.1593V6.272H66.7593V8H60.9033Z" fill="white"/>
</svg>
